<svg xmlns="http://www.w3.org/2000/svg">
  <symbol id="layout-dashboard" viewBox="0 0 24 24">
    <rect width="7" height="9" x="3" y="3" rx="1"/><rect width="7" height="5" x="14" y="3" rx="1"/><rect width="7" height="9" x="14" y="12" rx="1"/><rect width="7" height="5" x="3" y="16" rx="1"/>
  </symbol>
  <symbol id="send" viewBox="0 0 24 24">
    <path d="m22 2-7 20-4-9-9-4Z"/><path d="M22 2 11 13"/>
  </symbol>
  <symbol id="users" viewBox="0 0 24 24">
    <path d="M16 21v-2a4 4 0 0 0-4-4H6a4 4 0 0 0-4 4v2"/><circle cx="9" cy="7" r="4"/><path d="M22 21v-2a4 4 0 0 0-3-3.87"/><path d="M16 3.13a4 4 0 0 1 0 7.75"/>
  </symbol>
  <symbol id="chart" viewBox="0 0 24 24">
    <path d="M3 3v18h18"/><path d="m7 16 4-5 4 3 5-7"/>
  </symbol>
  <symbol id="receipt" viewBox="0 0 24 24">
    <path d="M6 2v20l3-2 3 2 3-2 3 2V2l-3 2-3-2-3 2-3-2Z"/><path d="M16 8h-6"/><path d="M16 12h-6"/><path d="M13 16h-3"/>
  </symbol>
  <symbol id="menu" viewBox="0 0 24 24">
    <path d="M4 6h16"/><path d="M4 12h16"/><path d="M4 18h16"/>
  </symbol>
  <symbol id="settings" viewBox="0 0 24 24">
    <path d="M12.22 2h-.44a2 2 0 0 0-2 2v.18a2 2 0 0 1-1 1.73l-.43.25a2 2 0 0 1-2 0l-.15-.08a2 2 0 0 0-2.73.73l-.22.38a2 2 0 0 0 .73 2.73l.15.1a2 2 0 0 1 1 1.72v.51a2 2 0 0 1-1 1.74l-.15.09a2 2 0 0 0-.73 2.73l.22.38a2 2 0 0 0 2.73.73l.15-.08a2 2 0 0 1 2 0l.43.25a2 2 0 0 1 1 1.73V20a2 2 0 0 0 2 2h.44a2 2 0 0 0 2-2v-.18a2 2 0 0 1 1-1.73l.43-.25a2 2 0 0 1 2 0l.15.08a2 2 0 0 0 2.73-.73l.22-.38a2 2 0 0 0-.73-2.73l-.15-.09a2 2 0 0 1-1-1.74v-.51a2 2 0 0 1 1-1.74l.15-.09a2 2 0 0 0 .73-2.73l-.22-.38a2 2 0 0 0-2.73-.73l-.15.08a2 2 0 0 1-2 0l-.43-.25a2 2 0 0 1-1-1.73V4a2 2 0 0 0-2-2Z"/><circle cx="12" cy="12" r="3"/>
  </symbol>
  <symbol id="landmark" viewBox="0 0 24 24">
    <path d="m3 10 9-7 9 7"/><path d="M5 10v9"/><path d="M9 10v9"/><path d="M15 10v9"/><path d="M19 10v9"/><path d="M3 19h18"/><path d="M2 22h20"/>
  </symbol>
  <symbol id="log-out" viewBox="0 0 24 24">
    <path d="M10 17l5-5-5-5"/><path d="M15 12H3"/><path d="M15 3h4a2 2 0 0 1 2 2v14a2 2 0 0 1-2 2h-4"/>
  </symbol>
  <symbol id="refresh" viewBox="0 0 24 24">
    <path d="M21 12a9 9 0 0 0-15.3-6.4L3 8"/><path d="M3 3v5h5"/><path d="M3 12a9 9 0 0 0 15.3 6.4L21 16"/><path d="M16 16h5v5"/>
  </symbol>
  <symbol id="arrow-right" viewBox="0 0 24 24">
    <path d="M5 12h14"/><path d="m13 6 6 6-6 6"/>
  </symbol>
  <symbol id="file-text" viewBox="0 0 24 24">
    <path d="M14.5 2H6a2 2 0 0 0-2 2v16a2 2 0 0 0 2 2h12a2 2 0 0 0 2-2V7.5Z"/><polyline points="14 2 14 8 20 8"/><path d="M16 13H8"/><path d="M16 17H8"/><path d="M10 9H8"/>
  </symbol>
  <symbol id="message" viewBox="0 0 24 24">
    <path d="M21 15a4 4 0 0 1-4 4H8l-5 3V7a4 4 0 0 1 4-4h10a4 4 0 0 1 4 4Z"/>
  </symbol>
  <symbol id="sparkles" viewBox="0 0 24 24">
    <path d="m12 3-1.9 4.8a2 2 0 0 1-1.1 1.1L4 11l5 2.1a2 2 0 0 1 1.1 1.1L12 19l1.9-4.8a2 2 0 0 1 1.1-1.1l5-2.1-5-2.1a2 2 0 0 1-1.1-1.1Z"/>
  </symbol>
</svg>
